# xmcd CD database file
#
# Track frame offsets:
#	150
#	51840
#	98860
#	165471
#	218328
#	255947
#
# Disc length: 4573 seconds
#
# Revision: 0
# Processed by: cddbd v1.5.2PL0 Copyright (c) Steve Scherf et al.
# Submitted via: CDex 1.51
#
DISCID=4011db06
DTITLE=Liebman, Beirach, McClure, Hart - Redemption - Quest Live In Europe
DYEAR=2007
DGENRE=Jazz
TTITLE0=Round Midnight
TTITLE1=Ogunde
TTITLE2=WTC/Steel Prayer
TTITLE3=Dark Eyes
TTITLE4=Lonely Woman
TTITLE5=Redemption
EXTD=YEAR: 2007
EXTT0=
EXTT1=
EXTT2=
EXTT3=
EXTT4=
EXTT5=
PLAYORDER=
